<?xml version="1.0" standalone="no"?>
<!DOCTYPE svg PUBLIC "-//W3C//DTD SVG 1.1//EN" "http://www.w3.org/Graphics/SVG/1.1/DTD/svg11.dtd">
<svg xmlns="http://www.w3.org/2000/svg" xmlns:xlink="http://www.w3.org/1999/xlink" width="900" zoomAndPan="magnify" viewBox="0 0 900 470.999988" height="471" preserveAspectRatio="xMidYMid meet" version="1.2"><defs><clipPath id="2ec66d1e5f"><path d="M 746.644531 69.734375 L 841.144531 69.734375 L 841.144531 164.234375 L 746.644531 164.234375 Z M 746.644531 69.734375 "/></clipPath></defs><g id="fc0d8a83f5"><path style=" stroke:none;fill-rule:evenodd;fill:#ffffff;fill-opacity:1;" d="M 291.875 70.636719 C 271.703125 72.019531 256.855469 76.851562 244.476562 86.058594 C 231.148438 95.96875 221.632812 111.597656 218.023438 129.492188 C 215.191406 143.546875 215.316406 160.964844 218.351562 174.574219 C 221.890625 190.460938 230.039062 204.699219 243.105469 217.824219 C 250.859375 225.613281 255.382812 229 278.964844 244.703125 C 303.835938 261.265625 308.984375 265.023438 317.410156 272.773438 C 327.304688 281.875 332.273438 289.886719 334.636719 300.554688 C 337.234375 312.289062 335.894531 328.007812 331.503906 337.296875 C 329.816406 340.863281 328.207031 343.183594 325.4375 346.035156 C 316.964844 354.769531 302.625 358.746094 288.085938 356.394531 C 274.3125 354.167969 265.25 347.730469 260.511719 336.800781 C 257.425781 329.683594 256.445312 322.535156 256.359375 306.503906 C 256.316406 299.238281 256.257812 298.296875 255.796875 297.605469 C 254.644531 295.882812 255 295.910156 235.683594 295.914062 C 218.683594 295.914062 217.992188 295.933594 217.097656 296.480469 C 215.171875 297.652344 215.203125 297.367188 215.347656 312.703125 C 215.484375 327.445312 215.621094 329.136719 217.304688 336.972656 C 223.984375 368.042969 242.816406 386.808594 274.113281 393.578125 C 290.050781 397.027344 305.664062 396.734375 321.761719 392.683594 C 346.8125 386.382812 363.3125 372.324219 372.34375 349.59375 C 377.25 337.25 379.25 322.808594 378.371094 306.085938 C 377.390625 287.414062 372.898438 273.011719 363.792969 259.347656 C 360.113281 253.828125 357.878906 251.082031 352.960938 246.039062 C 342.25 235.050781 333.058594 228.078125 308.828125 212.546875 C 281 194.710938 269.949219 184.816406 263.550781 172.011719 C 259.832031 164.578125 258.214844 156.566406 258.636719 147.675781 C 259.242188 134.867188 262.394531 126.632812 269.375 119.601562 C 276.417969 112.511719 284.460938 109.523438 296.519531 109.515625 C 304.519531 109.507812 310.265625 110.550781 315.570312 112.96875 C 324.019531 116.820312 330.464844 124.546875 333.363281 134.308594 C 334.90625 139.503906 335.199219 142.414062 335.25 153 C 335.296875 163.167969 335.3125 163.316406 336.746094 164.441406 C 337.503906 165.035156 337.71875 165.042969 356.058594 165.042969 C 376.507812 165.042969 375.820312 165.101562 376.785156 163.234375 C 377.171875 162.492188 377.230469 161.820312 377.085938 159.832031 C 375.988281 144.5625 375.644531 140.425781 375.128906 136.316406 C 372.667969 116.648438 366.046875 102.0625 354.503906 90.890625 C 347.332031 83.949219 339.507812 79.304688 328.890625 75.683594 C 317.839844 71.917969 302.898438 69.878906 291.875 70.636719 M 70.554688 73.089844 C 70.03125 73.242188 69.269531 73.824219 68.816406 74.417969 L 68.007812 75.480469 L 68.007812 230.902344 C 68.007812 380.21875 68.027344 386.359375 68.53125 387.125 C 69.621094 388.792969 70.503906 389.054688 75 389.054688 C 78.769531 389.058594 79.171875 389.003906 80.078125 388.402344 C 81.988281 387.128906 81.972656 387.242188 82.546875 370.847656 C 82.832031 362.667969 83.152344 355.976562 83.257812 355.976562 C 83.363281 355.976562 83.863281 356.757812 84.371094 357.707031 C 84.878906 358.660156 86.21875 360.839844 87.34375 362.550781 C 96.617188 376.617188 110.210938 386.503906 126.378906 390.949219 C 136.25 393.660156 145.78125 394.230469 157.441406 392.800781 C 175.207031 390.621094 187.820312 383.160156 196.808594 369.511719 C 201.890625 361.792969 205.339844 352.582031 206.859375 342.683594 C 207.796875 336.5625 207.96875 329.488281 208.160156 290.109375 C 208.355469 248.976562 208.046875 222.320312 207.300781 216.402344 C 204.925781 197.507812 200.007812 185.601562 190.707031 176.25 C 182.707031 168.199219 171.800781 162.878906 158.6875 160.621094 C 155.679688 160.105469 153.894531 160 148.238281 159.996094 C 140.976562 159.996094 137.910156 160.304688 130.828125 161.746094 C 111.773438 165.632812 96.804688 176.003906 86.648438 192.347656 L 84.980469 195.035156 L 84.980469 75.753906 L 84.324219 74.769531 C 83.125 72.980469 82.289062 72.765625 76.566406 72.792969 C 73.773438 72.808594 71.070312 72.941406 70.554688 73.089844 M 705.988281 73.261719 C 705.449219 73.527344 704.765625 74.148438 704.46875 74.636719 C 703.9375 75.5 703.925781 79.589844 703.996094 231.109375 L 704.066406 386.699219 L 704.925781 387.59375 C 706.175781 388.898438 707.429688 389.117188 713.035156 389.007812 C 718.476562 388.902344 719.296875 388.675781 720.277344 387.015625 C 720.714844 386.273438 720.753906 374.152344 720.753906 230.867188 C 720.75 75.570312 720.75 75.523438 720.164062 74.5625 C 719.199219 72.980469 718.253906 72.765625 712.273438 72.773438 C 707.921875 72.78125 706.792969 72.867188 705.988281 73.261719 M 450.839844 160.113281 C 435.703125 161.078125 421.367188 165.816406 411.574219 173.101562 C 396.886719 184.015625 388.546875 201.691406 386.132812 226.996094 C 385.570312 232.898438 385.570312 324.265625 386.132812 329.570312 C 388.351562 350.546875 396.53125 367.882812 409.222656 378.53125 C 419.722656 387.34375 433.066406 392.113281 450.890625 393.429688 C 463.910156 394.390625 480.285156 391.4375 491.039062 386.191406 C 502.84375 380.433594 511.867188 371.21875 517.921875 358.734375 C 522.382812 349.546875 525.097656 339.320312 526.023438 328.265625 C 526.183594 326.351562 526.394531 310.679688 526.496094 293.445312 C 526.699219 257.753906 526.34375 229.554688 525.609375 223.511719 C 524.632812 215.480469 522.152344 205.117188 519.695312 198.820312 C 512.601562 180.628906 499.347656 168.792969 479.949219 163.328125 C 470.722656 160.726562 459.945312 159.535156 450.839844 160.113281 M 544.363281 164.957031 C 543.824219 165.222656 543.136719 165.839844 542.839844 166.332031 C 542.3125 167.191406 542.296875 169.605469 542.300781 246.871094 C 542.304688 333.710938 542.304688 333.570312 544.066406 344.226562 C 548.832031 372.988281 566.695312 390.371094 594.339844 393.136719 C 598.945312 393.597656 610.152344 393.351562 614.550781 392.691406 C 621.984375 391.574219 629.777344 389.132812 635.863281 386.011719 C 646.441406 380.589844 655.828125 371.570312 662.515625 360.417969 L 664.316406 357.417969 L 664.460938 371.875 C 664.621094 387.90625 664.535156 387.242188 666.578125 388.488281 C 667.402344 388.992188 668.0625 389.054688 672.4375 389.054688 C 677.925781 389.054688 678.765625 388.824219 679.679688 387.054688 C 680.082031 386.273438 680.128906 374.96875 680.128906 276.59375 L 680.128906 167.007812 L 679.003906 165.878906 L 677.875 164.753906 L 671.878906 164.753906 C 665.339844 164.753906 664.742188 164.875 663.703125 166.40625 C 663.167969 167.199219 663.148438 169.121094 662.992188 239.183594 C 662.847656 304.574219 662.789062 311.542969 662.335938 315.5 C 660.324219 333.105469 656.15625 345.011719 648.378906 355.324219 C 636.628906 370.917969 620.519531 378.273438 601.148438 376.894531 C 587.636719 375.929688 579.316406 372.617188 572.617188 365.527344 C 567.269531 359.871094 563.941406 352.3125 561.445312 340.164062 C 559.855469 332.4375 559.9375 336.925781 559.789062 248.996094 C 559.664062 173.996094 559.617188 167.625 559.171875 166.738281 C 558.90625 166.210938 558.246094 165.484375 557.703125 165.121094 C 556.761719 164.492188 556.46875 164.460938 551.03125 164.46875 C 546.320312 164.476562 545.175781 164.558594 544.363281 164.957031 M 141.273438 176.546875 C 127.308594 177.855469 116.300781 182.339844 107.40625 190.347656 C 95.535156 201.027344 88.515625 215.109375 86.609375 232.074219 C 85.839844 238.902344 85.464844 253.265625 85.484375 275.019531 C 85.503906 296.984375 85.925781 317.101562 86.457031 321.582031 C 88.703125 340.46875 99.910156 359.261719 114.664062 368.875 C 119.398438 371.964844 126.21875 374.71875 131.84375 375.816406 C 139.527344 377.316406 149.414062 377.324219 157.515625 375.828125 C 173.464844 372.890625 183.820312 362.199219 188.453125 343.886719 C 190.429688 336.066406 190.328125 338.667969 190.65625 288.65625 C 191.019531 233.210938 190.835938 226.085938 188.703125 212.921875 C 186.742188 200.8125 183.941406 194.597656 177.574219 188.230469 C 172.171875 182.832031 165.980469 179.582031 157.503906 177.710938 C 152.394531 176.582031 145.894531 176.117188 141.273438 176.546875 M 452.777344 176.539062 C 437.449219 177.667969 426.289062 182.058594 418.246094 190.132812 C 414.050781 194.339844 411.0625 198.90625 408.6875 204.746094 C 406.484375 210.15625 404.699219 217.519531 403.671875 225.425781 C 403.210938 228.988281 403.167969 233.429688 403.164062 277.921875 C 403.15625 323.042969 403.195312 326.785156 403.675781 330.152344 C 406.628906 350.835938 415.648438 365.046875 430.101562 371.792969 C 437.472656 375.234375 446.171875 376.960938 456.113281 376.960938 C 468.808594 376.960938 479.714844 374.027344 487.984375 368.390625 C 491.277344 366.144531 496.542969 360.757812 498.847656 357.28125 C 503.394531 350.40625 506.675781 341.414062 508.214844 331.601562 C 508.84375 327.605469 509.167969 309.265625 509.175781 277.628906 C 509.179688 244.050781 508.859375 228.152344 508.0625 222.933594 C 506.324219 211.519531 503.414062 202.9375 499.097656 196.484375 C 491.902344 185.730469 481.039062 179.46875 465.691406 177.234375 C 462.011719 176.699219 455.425781 176.34375 452.777344 176.539062 "/><path style=" stroke:none;fill-rule:nonzero;fill:#ffffff;fill-opacity:1;" d="M 794.589844 117.003906 C 800.007812 117.003906 803.550781 114.0625 803.550781 108.644531 C 803.550781 103.230469 800.007812 100.621094 794.457031 100.621094 L 785.828125 100.621094 L 785.828125 117.003906 Z M 778.136719 93.597656 L 794.925781 93.597656 C 804.957031 93.597656 811.375 98.949219 811.375 108.511719 C 811.375 115.734375 807.363281 120.28125 801.679688 122.289062 L 812.648438 140.414062 L 803.683594 140.414062 L 793.789062 123.894531 C 793.722656 123.828125 791.3125 123.894531 791.246094 123.894531 L 785.828125 123.894531 L 785.828125 140.414062 L 778.136719 140.414062 L 778.136719 93.597656 "/><g clip-rule="nonzero" clip-path="url(#2ec66d1e5f)"><path style=" stroke:none;fill-rule:nonzero;fill:#ffffff;fill-opacity:1;" d="M 793.886719 77.84375 C 788.601562 77.84375 783.476562 78.878906 778.65625 80.917969 C 773.996094 82.886719 769.808594 85.710938 766.214844 89.304688 C 762.617188 92.902344 759.796875 97.085938 757.824219 101.746094 C 755.785156 106.570312 754.75 111.695312 754.75 116.980469 C 754.75 122.265625 755.785156 127.386719 757.824219 132.210938 C 759.796875 136.871094 762.617188 141.058594 766.214844 144.652344 C 769.808594 148.246094 773.996094 151.070312 778.65625 153.039062 C 783.476562 155.082031 788.601562 156.113281 793.886719 156.113281 C 799.171875 156.113281 804.296875 155.082031 809.121094 153.039062 C 813.78125 151.070312 817.964844 148.246094 821.5625 144.652344 C 825.15625 141.058594 827.976562 136.871094 829.949219 132.210938 C 831.988281 127.386719 833.023438 122.265625 833.023438 116.980469 C 833.023438 111.695312 831.988281 106.570312 829.949219 101.746094 C 827.976562 97.085938 825.15625 92.902344 821.5625 89.304688 C 817.964844 85.710938 813.78125 82.886719 809.121094 80.917969 C 804.296875 78.878906 799.171875 77.84375 793.886719 77.84375 Z M 793.886719 164.226562 C 787.511719 164.226562 781.324219 162.976562 775.496094 160.511719 C 769.867188 158.132812 764.816406 154.726562 760.480469 150.386719 C 756.140625 146.050781 752.734375 140.996094 750.355469 135.371094 C 747.890625 129.542969 746.640625 123.355469 746.640625 116.980469 C 746.640625 110.601562 747.890625 104.414062 750.355469 98.585938 C 752.734375 92.960938 756.140625 87.90625 760.480469 83.570312 C 764.816406 79.230469 769.867188 75.824219 775.496094 73.445312 C 781.324219 70.980469 787.511719 69.730469 793.886719 69.730469 C 800.265625 69.730469 806.453125 70.980469 812.277344 73.445312 C 817.90625 75.824219 822.957031 79.230469 827.296875 83.570312 C 831.632812 87.90625 835.039062 92.960938 837.421875 98.585938 C 839.886719 104.414062 841.136719 110.601562 841.136719 116.980469 C 841.136719 123.355469 839.886719 129.542969 837.421875 135.371094 C 835.039062 140.996094 831.632812 146.050781 827.296875 150.386719 C 822.957031 154.726562 817.90625 158.132812 812.277344 160.511719 C 806.453125 162.976562 800.265625 164.226562 793.886719 164.226562 "/></g></g></svg>